<?xml version="1.0" standalone="no"?>
<!DOCTYPE svg PUBLIC "-//W3C//DTD SVG 20010904//EN"
 "http://www.w3.org/TR/2001/REC-SVG-20010904/DTD/svg10.dtd">
<svg version="1.0" xmlns="http://www.w3.org/2000/svg"
 width="200.000000pt" height="200.000000pt" viewBox="0 0 200.000000 200.000000"
 preserveAspectRatio="xMidYMid meet">
<metadata>
Created by potrace 1.14, written by Peter Selinger 2001-2017
</metadata>
<g transform="translate(0.000000,200.000000) scale(0.100000,-0.100000)"
fill="#000000" stroke="none">
<path d="M340 1345 l0 -255 574 0 574 0 -2 253 -1 252 -572 3 -573 2 0 -255z"/>
<path d="M1529 1550 c-6 -26 -2 -273 4 -277 4 -3 42 3 83 12 110 24 173 70
246 179 l28 41 -24 24 c-24 23 -30 24 -180 25 -86 1 -157 -1 -157 -4z"/>
<path d="M255 1483 c-47 -11 -87 -38 -115 -76 -42 -57 -30 -67 76 -67 l84 0 0
75 c0 78 -1 79 -45 68z"/>
<path d="M470 1027 c0 -19 8 -25 44 -35 128 -34 185 -185 111 -292 -26 -38
-97 -80 -134 -80 -17 0 -21 -6 -21 -30 l0 -29 421 -1 420 0 -3 26 c-2 21 -12
29 -56 43 -65 22 -89 44 -115 100 -55 124 26 261 159 270 6 1 12 12 12 26 l0
25 -419 0 -419 0 0 -23z"/>
<path d="M460 522 l-125 -3 3 -59 4 -60 571 2 572 3 2 58 2 57 -32 1 c-158 2
-899 3 -997 1z"/>
</g>
</svg>
